<svg width="1108" height="1181" viewBox="0 0 1108 1181" fill="none" xmlns="http://www.w3.org/2000/svg">
<g clip-path="url(#clip0_49_12)" filter="url(#filter0_d_49_12)">
<rect width="1100" height="1173" transform="translate(4)" fill="white"/>
<line x1="175.359" y1="171.652" x2="987.359" y2="1008.65" stroke="black"/>
<line x1="1064.36" y1="63.3513" x2="108.356" y2="1031.68" stroke="black"/>
<path d="M232 306.5L77 396L77 217L232 306.5Z" fill="#EE423E"/>
<path d="M498.723 242.29C498.723 242.29 411.178 221.33 477.211 123.747C482.929 101.019 494.23 85.0951 494.23 85.0951C494.23 85.0951 556.451 -21.6068 660.334 66.3133C672.452 138.174 640.184 242.426 640.184 242.426L498.723 242.29Z" fill="#954839"/>
<path d="M488.239 145.387C488.239 145.387 474.896 120.209 500.765 115.99C526.225 112.995 522.005 137.221 522.005 137.221L521.868 144.026L488.239 145.387Z" fill="#FEEEDD"/>
<path d="M550.869 149.198L573.334 156.003C573.334 156.003 598.113 130.144 570.883 118.848C545.831 111.09 539.16 128.375 539.16 141.576C549.371 149.198 550.869 149.198 550.869 149.198Z" fill="#FEEEDD"/>
<path d="M583 130.552C581.775 126.061 578.235 121.842 570.747 118.848C552.911 113.404 544.47 120.481 541.066 129.736L583 130.552Z" fill="#E8D1C4"/>
<path d="M513.019 117.214C510.023 115.99 506.075 115.445 500.765 115.99C491.234 117.623 487.014 121.978 485.516 126.878L513.019 117.214Z" fill="#E8D1C4"/>
<path d="M502.671 159.269C502.671 159.269 484.699 133.547 526.225 136.269C567.751 138.99 556.315 153.961 537.526 163.488C537.798 163.624 502.671 159.269 502.671 159.269Z" fill="#954839" stroke="black" stroke-width="0.15" stroke-miterlimit="10"/>
<path d="M475.305 108.232L481.84 124.428C481.84 124.428 505.803 112.451 519.826 113.812C521.868 89.5864 519.826 89.3142 519.826 89.3142C519.826 89.3142 488.648 97.208 475.305 108.232Z" fill="#3A1F18"/>
<path d="M559.446 87.5449C559.446 87.5449 551.958 85.6396 551.413 87.9532C550.869 90.403 544.061 105.646 547.601 107.007C551.141 108.368 589.4 123.203 591.033 122.522C592.667 121.842 603.559 99.1134 600.836 98.4329C598.113 97.6163 559.446 87.5449 559.446 87.5449Z" fill="#3A1F18"/>
<path d="M524.455 204.454C524.455 204.454 571.427 208.946 592.122 183.359" stroke="#3A1F18" stroke-width="2" stroke-miterlimit="10" stroke-linecap="round"/>
<path d="M607.78 191.389C607.371 191.525 579.324 178.459 591.033 161.039C602.742 143.618 624.662 154.37 624.662 154.37L607.78 191.389Z" fill="#5B2D2F"/>
<path d="M454.201 172.743C454.61 172.743 479.934 174.785 482.384 160.358C484.835 145.795 477.891 136.949 469.178 136.405C461.281 150.151 456.516 162.127 454.201 172.743Z" fill="#5B2D2F"/>
<path d="M503.216 158.18L501.173 163.08L538.343 166.891L536.981 159.95L503.216 158.18Z" fill="#954839"/>
<path opacity="0.45" d="M510.296 64.5441C499.676 75.5681 494.094 85.0951 494.094 85.0951C494.094 85.0951 486.469 95.8469 480.479 112.315C484.291 110.818 491.371 107.96 500.493 104.557C514.244 99.3855 602.879 91.9001 602.879 91.9001C602.879 91.9001 603.695 94.7581 614.179 130.688C608.325 188.394 588.719 210.443 588.719 210.443L602.47 224.869L637.325 181.726L631.606 61.2777L510.296 64.5441Z" fill="#5B2D2F"/>
<path d="M575.512 219.561L569.521 212.212L581.775 202.821L592.395 216.023C592.395 216.023 620.986 162.672 620.986 160.63C621.123 158.589 621.123 158.589 621.123 158.589C621.123 158.589 622.484 98.705 620.17 97.2079C617.855 95.7108 575.784 71.213 533.305 77.4735C490.826 83.7341 477.211 87.9532 477.211 87.9532C477.211 87.9532 460.056 53.5201 480.206 47.5317C500.356 41.5433 579.596 21.6728 608.188 33.7857C636.78 45.7624 643.451 51.6147 643.451 51.6147L681.982 30.9276C681.982 30.9276 687.292 57.4669 672.043 66.3134C698.729 66.9939 697.504 66.8578 697.504 66.8578C697.504 66.8578 691.649 88.0893 672.588 86.7283C665.236 100.202 663.738 103.196 662.785 112.995C666.461 122.386 678.17 140.215 658.02 161.991C654.344 191.661 649.851 216.975 649.851 216.975L575.512 219.561Z" fill="#575455"/>
<path d="M643.452 75.5681C643.452 75.5681 656.386 90.9473 664.827 102.924C666.189 98.9772 668.231 94.8942 672.18 87.8171C660.062 83.4619 644.677 77.6096 643.452 75.5681Z" fill="#3C211D"/>
<path d="M658.02 162.263L656.522 173.696C656.522 173.696 642.226 169.477 639.095 162.263C648.081 164.033 658.02 162.263 658.02 162.263Z" fill="#3C211D"/>
<path d="M477.211 88.0893L521.869 65.769C522.005 65.6329 525.136 63.8636 527.451 64.408C529.901 64.9524 607.78 79.7873 624.935 82.9175C627.386 83.3258 629.292 85.6395 629.292 88.2254C629.292 88.2254 629.292 88.2254 629.292 88.3615C629.156 90.6752 630.109 148.79 630.381 158.317C630.381 159.133 630.245 160.086 629.837 160.766L603.695 218.745" stroke="#3C211D" stroke-width="0.5" stroke-miterlimit="10"/>
<path d="M606.146 34.0579C606.146 34.0579 561.897 38.1408 559.174 41.2711C556.451 44.4014 533.441 65.3607 533.441 65.3607" stroke="#3C211D" stroke-width="0.5" stroke-miterlimit="10" stroke-linecap="square"/>
<path d="M402.191 340.554L379.59 367.365L322.543 413.503L299.806 713.874L241.669 846.979L404.642 895.975L567.207 905.638L742.161 876.649L817.725 923.331L856.937 897.064L782.189 556.407L794.171 459.641L812.007 441.131L826.166 386.283L720.105 280.125L402.191 340.554Z" fill="#555352"/>
<path d="M322.543 413.503V386.147L382.041 345.181L416.215 339.057L536.028 372.945L729.227 289.244L760.405 320.411C745.293 333.204 708.123 373.762 648.081 391.046C583.681 409.828 553.047 437.32 322.543 413.503Z" fill="#3E211B"/>
<path d="M466.727 235.213L339.017 366.412C339.017 366.412 422.75 415.408 503.76 410.781C584.634 406.153 626.296 398.26 754.142 287.747C697.231 262.16 662.785 246.509 662.785 246.509L466.727 235.213Z" fill="#555352"/>
<path d="M626.569 244.467L458.013 244.195L339.017 366.412C339.017 366.412 351.135 375.395 370.74 386.283C409.816 360.832 548.962 269.782 552.911 266.652C556.587 263.793 651.893 259.166 687.292 257.533C671.499 250.456 662.785 246.509 662.785 246.509L626.569 244.467Z" fill="#3E211B"/>
<path d="M445.215 227.319L449.708 252.77L666.053 247.87C666.053 247.87 666.597 215.342 665.917 215.07C665.236 214.798 445.215 227.319 445.215 227.319Z" fill="#555352"/>
<path d="M262.909 847.66L250.383 868.755L393.75 902.644L566.254 912.035L737.532 885.087L817.861 923.467L819.631 880.596L633.376 810.913L262.909 847.66Z" fill="#3E211B"/>
<path d="M470.288 244.837C471.896 241.775 470.824 238.048 467.894 236.511C464.965 234.974 461.287 236.21 459.68 239.271C458.073 242.332 459.144 246.06 462.074 247.597C465.003 249.134 468.681 247.898 470.288 244.837Z" stroke="#3A1F18" stroke-width="0.75" stroke-miterlimit="10" stroke-linecap="round"/>
<path d="M590.072 242.211C591.68 239.15 590.608 235.422 587.679 233.885C584.749 232.349 581.071 233.584 579.464 236.646C577.857 239.707 578.928 243.435 581.858 244.972C584.787 246.509 588.465 245.273 590.072 242.211Z" stroke="#3A1F18" stroke-width="0.75" stroke-miterlimit="10" stroke-linecap="round"/>
<path d="M465.502 240.385C465.502 240.385 456.924 382.472 450.934 385.602" stroke="#BAB4B0" stroke-width="2" stroke-miterlimit="10" stroke-linecap="round"/>
<path d="M584.77 239.432C584.77 239.432 582.456 318.233 581.23 328.713C579.869 340.281 580.55 393.496 580.55 393.496" stroke="#BAB4B0" stroke-width="2" stroke-miterlimit="10" stroke-linecap="round"/>
<path d="M644.541 227.319L600.155 238.071H661.56L564.211 237.935" stroke="#3C211D" stroke-width="0.5" stroke-miterlimit="10"/>
<path d="M699.818 470.392L718.607 852.831L740.391 860.861L699.818 470.392Z" fill="#3E211B"/>
<path d="M748.288 486.452L781.101 566.887L788.317 512.719L748.288 486.452Z" fill="#3E211B"/>
<path d="M790.903 494.482L757.274 477.197L792.129 485.499L790.903 494.482Z" fill="#3E211B"/>
<path d="M819.631 880.596L856.937 899.65L817.861 923.467L819.631 880.596Z" fill="#3E211B"/>
<path d="M299.669 719.862L328.125 698.631L300.078 705.572L299.669 719.862Z" fill="#3E211B"/>
<path d="M545.286 441.811L540.657 821.12L553.047 819.351L547.873 441.131L545.286 441.811Z" fill="#3E211B"/>
<path d="M526.906 482.369L522.277 507.003L574.15 500.879L573.061 482.505L526.906 482.369Z" stroke="#BAB4B0" stroke-width="6" stroke-miterlimit="10" stroke-linecap="round"/>
<path d="M533.441 547.152L528.812 571.786L580.686 565.662L579.46 547.288L533.441 547.152Z" stroke="#BAB4B0" stroke-width="6" stroke-miterlimit="10" stroke-linecap="round"/>
<path d="M522.141 628.812L518.192 650.043L562.986 644.736L561.897 628.812H522.141Z" stroke="#BAB4B0" stroke-width="6" stroke-miterlimit="10" stroke-linecap="round"/>
<path d="M398.515 894.478L416.215 997.097L479.661 996.144C491.098 961.439 503.352 935.716 506.755 895.703C476.394 865.217 398.515 894.478 398.515 894.478Z" fill="#555352"/>
<path d="M567.343 901.691L579.733 996.961L641.273 997.097C641.273 997.097 683.48 912.443 683.48 880.46C585.723 847.66 567.479 897.472 567.479 897.472L567.343 901.691Z" fill="#555352"/>
<path d="M417.576 997.097L424.52 1039.42L464.821 1036.7L474.896 997.097H417.576Z" fill="#C4C4C4"/>
<path d="M579.732 996.961L583.545 1036.29H617.038L641.273 997.097L579.732 996.961Z" fill="#C4C4C4"/>
<path opacity="0.51" d="M581.366 1014.38L580.822 1008.53L634.057 1008.67L631.198 1013.29L581.366 1014.38Z" fill="#898989"/>
<path opacity="0.51" d="M420.299 1013.16L419.482 1007.71L472.445 1007.3L470.811 1012.88L420.299 1013.16Z" fill="#898989"/>
<path d="M414.854 996.688L417.032 1010.71L474.079 1010.3L481.295 996.28L414.854 996.688Z" fill="#C4C4C4"/>
<path d="M576.329 996.144L577.826 1011.25L635.418 1011.39L644.677 996.28L576.329 996.144Z" fill="#C4C4C4"/>
<path d="M417.576 996.552L419.21 1010.57" stroke="#898989" stroke-miterlimit="10"/>
<path d="M428.196 996.552L429.694 1010.57" stroke="#898989" stroke-miterlimit="10"/>
<path d="M443.581 996.28L440.858 1010.3" stroke="#898989" stroke-miterlimit="10"/>
<path d="M455.971 996.28L453.112 1010.3" stroke="#898989" stroke-miterlimit="10"/>
<path d="M472.99 996.416L467.544 1010.43" stroke="#898989" stroke-miterlimit="10"/>
<path d="M583.817 996.144L583.272 1011.25" stroke="#898989" stroke-miterlimit="10"/>
<path d="M598.113 996.28L594.981 1011.39" stroke="#898989" stroke-miterlimit="10"/>
<path d="M609.277 996.28L606.963 1011.39" stroke="#898989" stroke-miterlimit="10"/>
<path d="M622.62 996.28L617.719 1011.39" stroke="#898989" stroke-miterlimit="10"/>
<path d="M634.329 996.28L628.747 1011.39" stroke="#898989" stroke-miterlimit="10"/>
<path opacity="0.54" d="M683.48 880.46C585.723 847.66 567.479 897.472 567.479 897.472C567.479 897.472 627.794 858.412 682.118 892.436C682.935 887.945 683.48 883.862 683.48 880.46Z" fill="#3E211B"/>
<path opacity="0.54" d="M388.304 900.875L384.764 882.229L508.798 868.347L507.3 905.638C507.436 905.638 443.581 879.779 388.304 900.875Z" fill="#3E211B"/>
<path d="M727.729 370.359L764.49 406.426L788.453 400.709L790.495 377.709L757.818 337.015L750.466 359.744L727.729 370.359Z" fill="#BAB4B0"/>
<path d="M770.072 352.122L765.035 371.72L738.894 381.383" stroke="#8E8B8A" stroke-miterlimit="10"/>
<path d="M782.189 367.229L777.424 385.739L752.781 394.857" stroke="#8E8B8A" stroke-miterlimit="10"/>
<path d="M473.807 1023.09C473.807 1023.09 472.718 1039.15 475.577 1041.47C478.436 1043.78 494.366 1040.38 494.366 1040.38L495.863 1047.05C495.863 1047.05 484.154 1056.16 488.784 1073.45C493.277 1090.87 485.788 1114.82 485.788 1114.82L474.079 1095.9L275.298 1100.94C275.298 1100.94 295.857 1040.65 407.91 1038.88C410.36 1036.57 410.36 1036.57 410.36 1036.57C410.36 1036.57 400.694 1008.53 410.36 1007.03C416.487 1016.01 420.708 1027.31 420.708 1027.31C420.708 1027.31 460.736 1049.77 473.807 1023.09Z" fill="#675F4D"/>
<path d="M316.552 1059.29C316.552 1059.29 322.407 1063.65 321.59 1067.19C320.773 1070.73 330.304 1073.86 336.703 1072.63C343.102 1071.27 348.548 1069.37 348.548 1069.37C342.829 1068.55 338.745 1067.05 334.252 1065.69C334.252 1065.69 328.67 1062.83 335.477 1051.13C325.811 1054.8 329.759 1052.9 325.811 1054.8C321.862 1056.71 316.552 1059.29 316.552 1059.29Z" fill="#653A3B"/>
<path d="M278.43 1094.41C278.43 1094.41 267.265 1113.05 269.035 1114.82C270.805 1116.59 484.971 1116.59 484.971 1116.59C484.971 1116.59 492.596 1099.04 490.145 1090.05C487.558 1081.21 278.43 1094.41 278.43 1094.41Z" fill="#CDC3B7"/>
<path d="M441.267 1041.47L433.37 1056.3L475.441 1041.19C475.441 1041.19 473.535 1037.79 473.943 1030.58C473.943 1029.35 441.267 1041.47 441.267 1041.47Z" fill="#373737"/>
<path d="M423.431 1060.79L408.455 1038.33H426.971L447.53 1041.6C447.53 1041.6 434.323 1048.68 438.272 1054.26" fill="#653A3B"/>
<path d="M475.577 1041.47C475.577 1041.47 382.041 1068.41 399.468 1086.92" stroke="#2C2C2C" stroke-miterlimit="10"/>
<path d="M335.749 1050.86C335.749 1050.86 326.763 1065.69 338.2 1067.32C349.637 1068.96 359.031 1071.54 360.937 1080.8" stroke="#2C2C2C" stroke-miterlimit="10"/>
<path d="M380.407 1088.96C380.407 1088.96 367.337 1077.4 357.806 1080.53C348.275 1083.66 343.646 1076.99 343.646 1076.99C343.646 1076.99 316.688 1075.76 314.101 1076.99C311.515 1078.21 307.294 1065.69 305.388 1066.24C297.627 1068.41 275.843 1094.82 278.43 1094.41L380.407 1088.96Z" fill="#653A3B"/>
<path d="M375.097 1089.24C375.097 1089.24 366.928 1081.21 361.891 1082.98C356.853 1084.74 342.421 1085.29 340.379 1081.89C338.2 1078.48 315.191 1080.53 315.191 1080.53C315.191 1080.53 308.792 1082.7 307.566 1077.94C306.341 1073.18 300.486 1069.23 300.486 1069.23" stroke="#2C2C2C" stroke-miterlimit="10"/>
<path d="M353.313 1052.22C349.773 1046.36 347.595 1044.6 347.595 1044.6L361.346 1050.86L360.529 1041.33L370.74 1049.36L372.647 1038.47L380.952 1047.32L385.581 1036.84L392.116 1044.05L394.295 1035.75L401.102 1044.73" stroke="#2C2C2C" stroke-miterlimit="10" stroke-linecap="round" stroke-linejoin="bevel"/>
<path d="M360.121 1060.38L378.909 1078.48L385.445 1073.99L375.914 1064.47L396.473 1069.09L403.553 1064.6L384.628 1045.82L377.276 1050.31L386.126 1059.16L367.473 1055.21L360.121 1060.38Z" fill="#5B5446" stroke="#BF504F" stroke-miterlimit="10"/>
<path d="M426.615 1043.1C427.069 1042.23 426.79 1041.19 425.991 1040.77C425.192 1040.35 424.176 1040.71 423.722 1041.58C423.268 1042.44 423.547 1043.49 424.346 1043.9C425.145 1044.32 426.161 1043.96 426.615 1043.1Z" fill="#373737"/>
<path d="M430.816 1049.44C431.27 1048.58 430.937 1047.51 430.071 1047.05C429.206 1046.6 428.136 1046.93 427.681 1047.8C427.227 1048.66 427.56 1049.73 428.426 1050.18C429.292 1050.64 430.361 1050.31 430.816 1049.44Z" fill="#373737"/>
<path d="M409.952 1038.06H440.042L438.816 1034.39C428.741 1031.8 420.572 1027.31 420.572 1027.31C420.572 1027.31 416.488 1015.88 410.225 1007.03C400.558 1008.53 410.225 1036.57 410.225 1036.57C410.225 1036.57 410.225 1036.57 409.544 1037.25L409.952 1038.06Z" fill="#373737"/>
<path d="M473.671 1031.8C473.671 1031.8 476.666 1024.45 475.713 1023.36C474.76 1022.14 469.45 1021.46 468.089 1025.41C466.591 1029.35 446.985 1039.83 439.905 1034.8C432.825 1029.76 424.384 1030.03 419.346 1030.71C414.445 1031.39 407.91 1036.43 408.454 1038.2C408.999 1039.97 426.018 1038.2 427.924 1039.42C429.83 1040.51 440.722 1045.68 447.257 1043.91C453.929 1042.01 470.267 1036.57 473.671 1031.8Z" fill="#BF504F"/>
<path d="M408.727 1008.39C408.727 1008.39 407.502 1027.45 411.722 1033.98Z" fill="#CECECE"/>
<path d="M408.727 1008.39C408.727 1008.39 407.502 1027.45 411.722 1033.98" stroke="#373737" stroke-miterlimit="10"/>
<path d="M476.939 1061.2C480.478 1064.06 485.38 1063.65 487.694 1063.24C488.648 1052.63 495.727 1047.18 495.727 1047.18L494.23 1040.51C494.23 1040.51 481.568 1043.23 476.802 1042.15L475.986 1042.55C476.122 1042.42 472.173 1057.39 476.939 1061.2Z" fill="#5B5446"/>
<path d="M476.394 1041.87C476.394 1041.87 467.952 1067.87 487.83 1062.83" stroke="#2C2C2C" stroke-miterlimit="10"/>
<path d="M434.323 1086.92C434.323 1086.92 431.736 1072.36 437.318 1072.77C442.901 1073.18 488.648 1073.58 488.648 1073.58C489.873 1078.08 490.145 1083.79 490.009 1090.05L434.323 1086.92Z" fill="#B16F3A"/>
<path d="M455.427 1080.8L489.465 1081.89" stroke="#2C2C2C" stroke-miterlimit="10"/>
<path d="M374.008 1116.32C374.008 1116.32 371.013 1103.8 384.356 1104.07C397.699 1104.34 414.854 1104.07 414.854 1104.07C414.854 1104.07 415.534 1108.7 417.577 1109.24C419.619 1109.79 425.065 1108.15 425.882 1104.07C432.826 1103.8 449.845 1102.44 451.751 1104.07C453.657 1105.7 453.929 1116.46 453.929 1116.46L374.008 1116.32Z" fill="#B16F3A"/>
<path d="M394.022 1114.55H385.036C383.947 1114.55 383.13 1113.33 383.266 1111.83C383.266 1110.33 384.219 1109.24 385.309 1109.24H394.295C395.384 1109.24 396.201 1110.47 396.065 1111.96C396.065 1113.33 395.111 1114.55 394.022 1114.55Z" stroke="#2C2C2C" stroke-miterlimit="10"/>
<path d="M446.304 1114.55H437.318C436.229 1114.55 435.412 1113.33 435.549 1111.83C435.549 1110.33 436.502 1109.24 437.591 1109.24H446.577C447.666 1109.24 448.483 1110.47 448.347 1111.96C448.211 1113.46 447.258 1114.69 446.304 1114.55Z" stroke="#2C2C2C" stroke-miterlimit="10"/>
<path d="M269.035 1114.82C269.172 1115.23 284.557 1115.5 294.36 1115.78C284.421 1115.64 281.425 1089.24 281.425 1089.24C281.425 1089.24 266.585 1109.65 269.035 1114.82Z" fill="#363636"/>
<path d="M289.73 1104.34C289.73 1104.34 421.389 1091.01 449.027 1091.82C476.802 1092.64 488.511 1102.71 488.511 1102.71" stroke="#363636" stroke-miterlimit="10"/>
<path d="M315.191 1096.59L317.097 1106.25" stroke="#363636" stroke-miterlimit="10"/>
<path d="M339.97 1094.41L341.604 1103.25" stroke="#363636" stroke-miterlimit="10"/>
<path d="M486.469 1096.86L480.615 1104.75" stroke="#363636" stroke-miterlimit="10"/>
<path d="M330.848 1069.23C329.759 1066.1 325.402 1066.37 321.726 1067.32C321.317 1069.91 326.627 1072.36 331.937 1072.77C331.665 1071.95 331.393 1070.86 330.848 1069.23Z" fill="#2B2B2D"/>
<path d="M332.346 1058.75C332.754 1056.71 333.707 1054.26 335.477 1051.13C325.811 1054.8 329.759 1052.9 325.811 1054.8C321.862 1056.57 316.552 1059.43 316.552 1059.43C316.552 1059.43 319.411 1061.61 320.909 1064.06C324.857 1062.83 330.984 1060.79 332.346 1058.75Z" fill="#2B2B2D"/>
<path d="M340.107 1067.46C339.29 1068.82 339.153 1070.59 339.29 1071.95C344.463 1070.73 348.548 1069.23 348.548 1069.23C345.416 1068.96 342.693 1068.28 340.107 1067.46Z" fill="#2B2B2D"/>
<path d="M404.915 1040.38L414.854 1062.15" stroke="#2C2C2C" stroke-miterlimit="10"/>
<path d="M574.968 1021.46C574.968 1021.46 574.831 1037.52 571.7 1039.83C568.705 1042.15 553.047 1038.74 553.047 1038.74L551.005 1045.41C551.005 1045.41 561.897 1054.53 556.042 1071.95C550.188 1089.37 555.77 1113.33 555.77 1113.33L568.977 1094.41L767.349 1099.99C767.349 1099.99 751.556 1039.7 639.639 1037.52C637.325 1035.2 637.325 1035.2 637.325 1035.2C637.325 1035.2 650.532 1007.71 641.001 1006.22C634.193 1015.2 627.794 1026.09 627.794 1026.09C627.794 1026.09 585.996 1048.13 574.968 1021.46Z" fill="#675F4D"/>
<path d="M729.363 1058.07C729.363 1058.07 723.1 1062.42 723.781 1065.96C724.325 1069.5 714.522 1072.63 708.259 1071.27C701.996 1069.91 696.687 1068 696.687 1068C702.405 1067.32 706.626 1065.69 711.255 1064.47C711.255 1064.47 717.109 1061.61 711.119 1049.9C720.513 1053.58 716.701 1051.67 720.513 1053.58C724.189 1055.35 729.363 1058.07 729.363 1058.07Z" fill="#653A3B"/>
<path d="M764.763 1093.18C764.763 1093.18 774.429 1111.83 772.523 1113.6C770.481 1115.37 556.451 1114.82 556.451 1114.82C556.451 1114.82 550.188 1097.13 553.456 1088.28C556.724 1079.44 764.763 1093.18 764.763 1093.18Z" fill="#CDC3B7"/>
<path d="M606.146 1039.83L612.954 1054.8L572.108 1039.56C572.108 1039.56 574.287 1036.16 574.423 1028.94C574.423 1027.72 606.146 1039.83 606.146 1039.83Z" fill="#373737"/>
<path d="M622.484 1059.16L639.231 1036.84H620.714L599.883 1040.1C599.883 1040.1 612.545 1047.18 608.188 1052.76" fill="#653A3B"/>
<path d="M571.836 1039.83C571.836 1039.83 663.193 1067.05 644.405 1085.43" stroke="#2C2C2C" stroke-miterlimit="10"/>
<path d="M710.846 1049.49C710.846 1049.49 718.743 1064.33 707.17 1065.96C695.597 1067.6 686.067 1070.18 683.48 1079.3" stroke="#2C2C2C" stroke-miterlimit="10"/>
<path d="M663.193 1087.6C663.193 1087.6 677.217 1076.03 686.339 1079.3C695.597 1082.43 700.771 1075.76 700.771 1075.76C700.771 1075.76 727.865 1074.67 730.316 1075.76C732.767 1076.85 738.077 1064.47 739.847 1065.01C747.471 1067.19 767.077 1093.59 764.626 1093.18L663.193 1087.6Z" fill="#653A3B"/>
<path d="M668.503 1087.88C668.503 1087.88 677.353 1079.85 682.119 1081.75C687.02 1083.66 701.316 1084.06 703.767 1080.8C706.217 1077.4 729.091 1079.44 729.091 1079.44C729.091 1079.44 735.354 1081.61 736.988 1076.85C738.621 1072.09 744.748 1068.14 744.748 1068.14" stroke="#2C2C2C" stroke-miterlimit="10"/>
<path d="M693.147 1050.86C697.231 1045 699.546 1043.23 699.546 1043.23L685.386 1049.36L686.884 1039.83L675.992 1047.86L674.903 1036.97L665.917 1045.82L662.104 1035.34L655.024 1042.55L653.527 1034.25L645.902 1043.23" stroke="#2C2C2C" stroke-miterlimit="10" stroke-linecap="round" stroke-linejoin="bevel"/>
<path d="M685.659 1058.89L666.734 1076.99L660.198 1072.5L669.865 1062.97L649.306 1067.6L642.09 1063.24L661.152 1044.32L668.368 1048.81L659.654 1057.66L678.307 1053.71L685.659 1058.89Z" fill="#5B5446" stroke="#BF504F" stroke-miterlimit="10"/>
<path d="M623.479 1041.58C623.933 1040.72 623.654 1039.67 622.855 1039.26C622.056 1038.84 621.04 1039.2 620.586 1040.06C620.131 1040.93 620.411 1041.97 621.21 1042.39C622.009 1042.81 623.025 1042.45 623.479 1041.58Z" fill="#373737"/>
<path d="M619.05 1047.81C619.504 1046.95 619.17 1045.88 618.305 1045.42C617.439 1044.97 616.37 1045.3 615.915 1046.17C615.461 1047.03 615.794 1048.1 616.66 1048.56C617.525 1049.01 618.595 1048.68 619.05 1047.81Z" fill="#373737"/>
<path d="M637.733 1036.57H607.644L609.278 1032.89C619.625 1030.31 628.067 1025.95 628.067 1025.95C628.067 1025.95 634.466 1015.06 641.273 1006.08C650.804 1007.58 637.597 1035.07 637.597 1035.07C637.597 1035.07 637.597 1035.07 638.278 1035.75L637.733 1036.57Z" fill="#373737"/>
<path d="M574.559 1030.03C574.559 1030.03 572.108 1022.68 573.198 1021.59C574.287 1020.51 579.597 1019.69 580.686 1023.64C581.775 1027.58 600.564 1038.06 608.052 1033.16C615.541 1028.26 623.982 1028.54 628.883 1029.22C633.785 1029.9 639.912 1034.93 639.095 1036.7C638.414 1038.47 621.531 1036.7 619.625 1037.79C617.719 1038.88 606.418 1043.91 600.019 1042.15C593.484 1040.38 577.554 1034.8 574.559 1030.03Z" fill="#BF504F"/>
<path d="M641.273 1006.9C641.273 1006.9 641.001 1025.95 636.236 1032.48Z" fill="#CECECE"/>
<path d="M641.273 1006.9C641.273 1006.9 641.001 1025.95 636.236 1032.48" stroke="#373737" stroke-miterlimit="10"/>
<path d="M568.841 1059.43C565.029 1062.29 560.127 1061.88 557.949 1061.47C557.813 1050.86 551.141 1045.28 551.141 1045.28L553.183 1038.61C553.183 1038.61 565.573 1041.33 570.475 1040.24L571.292 1040.65C571.155 1040.65 573.878 1055.62 568.841 1059.43Z" fill="#5B5446"/>
<path d="M571.019 1040.24C571.019 1040.24 577.418 1066.24 557.949 1061.2" stroke="#2C2C2C" stroke-miterlimit="10"/>
<path d="M609.414 1085.43C609.414 1085.43 613.09 1070.86 607.508 1071.13C601.789 1071.54 556.179 1071.82 556.179 1071.82C554.681 1076.58 553.592 1081.75 553.456 1088.28L609.414 1085.43Z" fill="#B16F3A"/>
<path d="M588.855 1079.16L554.817 1080.12" stroke="#2C2C2C" stroke-miterlimit="10"/>
<path d="M667.414 1114.96C667.414 1114.96 671.499 1102.44 658.02 1102.71C644.677 1102.98 627.522 1102.71 627.522 1102.71C627.522 1102.71 626.569 1107.34 624.391 1107.88C622.212 1108.43 617.038 1106.79 616.494 1102.71C609.55 1102.44 592.667 1100.94 590.625 1102.71C588.583 1104.48 587.494 1115.09 587.494 1115.09L667.414 1114.96Z" fill="#B16F3A"/>
<path d="M647.536 1113.05H656.522C657.611 1113.05 658.428 1111.83 658.564 1110.47C658.564 1108.97 657.748 1107.88 656.795 1107.75H647.809C646.719 1107.75 645.902 1108.97 645.766 1110.33C645.63 1111.83 646.447 1113.05 647.536 1113.05Z" stroke="#2C2C2C" stroke-miterlimit="10"/>
<path d="M595.254 1112.92H604.24C605.329 1112.92 606.146 1111.69 606.282 1110.33C606.282 1108.83 605.465 1107.75 604.512 1107.61H595.526C594.437 1107.61 593.62 1108.83 593.484 1110.2C593.484 1111.83 594.301 1112.92 595.254 1112.92Z" stroke="#2C2C2C" stroke-miterlimit="10"/>
<path d="M772.523 1113.73C772.251 1114.14 757.002 1114.41 747.062 1114.55C757.002 1114.41 762.175 1088.01 762.175 1088.01C762.175 1088.01 775.382 1108.56 772.523 1113.73Z" fill="#363636"/>
<path d="M752.645 1103.25C752.645 1103.25 622.076 1089.51 594.301 1090.19C566.526 1090.87 554 1100.94 554 1100.94" stroke="#363636" stroke-miterlimit="10"/>
<path d="M727.866 1095.36L725.143 1104.89" stroke="#363636" stroke-miterlimit="10"/>
<path d="M703.222 1093.18L700.908 1101.89" stroke="#363636" stroke-miterlimit="10"/>
<path d="M556.587 1095.09L561.761 1102.98" stroke="#363636" stroke-miterlimit="10"/>
<path d="M714.386 1068C715.748 1064.87 720.105 1065.15 723.645 1066.1C723.781 1068.69 718.335 1071.13 713.025 1071.54C713.297 1070.73 713.706 1069.5 714.386 1068Z" fill="#2B2B2D"/>
<path d="M713.569 1057.39C713.297 1055.35 712.616 1052.9 710.982 1049.77C720.377 1053.44 716.565 1051.54 720.377 1053.44C724.189 1055.21 729.363 1058.07 729.363 1058.07C729.363 1058.07 726.368 1060.11 724.734 1062.7C720.922 1061.47 714.931 1059.43 713.569 1057.39Z" fill="#2B2B2D"/>
<path d="M705.128 1066.1C705.945 1067.46 705.809 1069.23 705.673 1070.59C700.499 1069.37 696.687 1067.87 696.687 1067.87C699.818 1067.6 702.541 1066.92 705.128 1066.1Z" fill="#2B2B2D"/>
<path d="M642.499 1038.74L630.926 1060.66" stroke="#2C2C2C" stroke-miterlimit="10"/>
<path d="M880 582C880 563.013 885.63 544.452 896.179 528.665C906.728 512.878 921.721 500.574 939.262 493.308C956.804 486.042 976.106 484.14 994.729 487.845C1013.35 491.549 1030.46 500.692 1043.88 514.118C1057.31 527.544 1066.45 544.649 1070.16 563.271C1073.86 581.894 1071.96 601.196 1064.69 618.738C1057.43 636.279 1045.12 651.272 1029.33 661.821C1013.55 672.37 994.987 678 976 678L976 582L880 582Z" fill="#BDCB42"/>
<path d="M123 923L123 914C123 876.997 152.997 847 190 847L199 847L199 923L123 923Z" fill="#403BF4"/>
</g>
<defs>
<filter id="filter0_d_49_12" x="0" y="0" width="1108" height="1181" filterUnits="userSpaceOnUse" color-interpolation-filters="sRGB">
<feFlood flood-opacity="0" result="BackgroundImageFix"/>
<feColorMatrix in="SourceAlpha" type="matrix" values="0 0 0 0 0 0 0 0 0 0 0 0 0 0 0 0 0 0 127 0" result="hardAlpha"/>
<feOffset dy="4"/>
<feGaussianBlur stdDeviation="2"/>
<feComposite in2="hardAlpha" operator="out"/>
<feColorMatrix type="matrix" values="0 0 0 0 0 0 0 0 0 0 0 0 0 0 0 0 0 0 0.25 0"/>
<feBlend mode="normal" in2="BackgroundImageFix" result="effect1_dropShadow_49_12"/>
<feBlend mode="normal" in="SourceGraphic" in2="effect1_dropShadow_49_12" result="shape"/>
</filter>
<clipPath id="clip0_49_12">
<rect width="1100" height="1173" fill="white" transform="translate(4)"/>
</clipPath>
</defs>
</svg>
