<?xml version="1.0" encoding="UTF-8"?><svg xmlns="http://www.w3.org/2000/svg" viewBox="0 0 1414.93 721"><defs><style>.cls-1{fill:#fff;}.cls-2{fill:#403bf4;}.cls-3{fill:#ee423e;}.cls-4{fill:#bdcb42;}.cls-5{fill:#272528;}</style></defs><g id="Bg"><path class="cls-5" d="M1404.05,0H0V721H1404.05V0Z"/></g><g id="Green"><path class="cls-4" d="M47.43,422.16v96.77h116.69c-46.49-22.77-86.33-55.97-116.69-96.77Z"/><path class="cls-4" d="M151.79,50.28H47.43v91.07c27.51-37.95,62.61-69.25,104.36-91.07Z"/></g><g id="Red"><path class="cls-3" d="M702.03,280.81c0,99.61-65.46,187.84-163.17,237.17h326.35c-97.71-49.33-163.17-136.61-163.17-237.17Z"/><path class="cls-3" d="M702.03,280.81c0-95.82,59.77-180.25,150.84-231.48h-302.63c92.02,51.23,151.79,135.66,151.79,231.48Z"/></g><g id="Blue"><path class="cls-2" d="M1054.94,270.37v248.56h173.61v-32.26c0-172.66,0-216.3-173.61-216.3Z"/><path class="cls-2" d="M1357.57,50.28h-302.63v220.09h302.63V50.28Z"/></g><g id="Text"><path class="cls-1" d="M131.89,649.85c22.38,0,43.75-3.79,65.12-9.49v21.82c-12.21,6.64-37.65,11.38-64.1,11.38-40.7,0-84.45-10.44-85.47-43.64,1.02-33.2,44.77-43.64,85.47-43.64,26.45,0,51.89,4.74,64.1,10.44v21.82c-21.37-5.69-42.73-8.54-65.12-9.49-22.38,0-41.72,4.74-41.72,19.92s19.33,20.87,41.72,20.87Z"/><path class="cls-1" d="M262.12,590.08h36.63v35.1c0,17.08,21.37,22.77,41.72,22.77s41.72-5.69,41.72-22.77v-35.1h36.63v40.79c0,29.41-42.73,42.69-78.35,41.74-36.63,0-78.35-12.33-78.35-41.74v-40.79Z"/><path class="cls-1" d="M528.7,612.85c-2.03,0-3.05,.95-3.05,2.85v.95s0,.95,1.02,.95l1.02,.95h49.86c39.68,0,67.15,7.59,67.15,25.61,0,37.95-165.85,37-165.85-.95h39.68c0,2.85,5.09,3.79,8.14,3.79h73.26s1.02,0,1.02-.95l1.02-.95v-1.9s0-.95-1.02-.95l-1.02-.95h-67.15c-16.28-.95-49.86-4.74-49.86-23.72,0-40.79,161.78-39.84,161.78-.95h-39.68c0-2.85-5.09-3.79-8.14-3.79h-68.17Z"/><path class="cls-1" d="M762.73,612.85h-63.08v-22.77h161.78v22.77h-63.08v56.92h-36.63v-56.92h1.02Z"/><path class="cls-1" d="M920.44,629.93c0-30.36,46.8-43.64,83.43-43.64,36.63-.95,83.43,13.28,83.43,43.64s-47.82,43.64-83.43,43.64-83.43-14.23-83.43-43.64Zm83.43,19.92c21.37,0,39.68-6.64,39.68-19.92s-18.31-19.92-39.68-19.92-39.68,6.64-39.68,19.92,18.31,19.92,39.68,19.92Z"/><path class="cls-1" d="M1245.01,623.29l25.44-33.2h36.63l49.86,79.69h-42.73l-29.51-47.43-39.68,51.23-39.68-51.23-29.51,47.43h-42.73l49.86-79.69h36.63l25.44,33.2Z"/></g></svg>